<?xml version="1.0" encoding="utf-8"?>
<!-- Generator: Adobe Illustrator 25.3.1, SVG Export Plug-In . SVG Version: 6.00 Build 0)  -->
<svg version="1.1" xmlns="http://www.w3.org/2000/svg" xmlns:xlink="http://www.w3.org/1999/xlink" x="0px" y="0px"
	 viewBox="0 0 250 55" style="enable-background:new 0 0 250 55;" xml:space="preserve">
<style type="text/css">
	.st0{fill:#BE9C63;}
	.st1{font-family:'ComicSansMS';}
	.st2{font-size:24px;}
	.st3{letter-spacing:12;}
	.st4{font-family:'ArialMT';}
	.st5{font-size:12px;}
	.st6{fill:#F0F0F0;}
	.st7{fill:#3F3F3F;}
	.st8{fill:#F9F9F9;}
	.st9{fill:#49263C;}
	.st10{fill:#353535;stroke:#4C2C40;stroke-miterlimit:10;}
	.st11{fill:#353535;stroke:#3D2132;stroke-miterlimit:10;}
	.st12{fill:#353535;stroke:#47263A;stroke-miterlimit:10;}
	.st13{fill:#D33566;}
	.st14{fill:#A81A54;}
	.st15{fill:#317733;}
</style>
<g id="レイヤー_1">
	<text transform="matrix(1 0 0 1 62.9525 35.6994)" class="st0 st1 st2">Toy</text>
	<text transform="matrix(1 0 0 1 104.3825 35.6994)" class="st0 st1 st2 st3">’</text>
	<text transform="matrix(1 0 0 1 120.7025 35.6994)" class="st0 st1 st2">s</text>
	<text transform="matrix(1 0 0 1 132.3824 35.9394)" class="st4 st2"> </text>
	<text transform="matrix(1 0 0 1 145.6151 31.8688)" class="st4 st5"> </text>
	<text transform="matrix(1 0 0 1 148.4151 36.1888)" class="st0 st1 st2">Portfolio</text>
</g>
<g id="レイヤー_2">
	<path class="st0" d="M26.21,21.64l1.69,0.79l1.94,0.73l3.71,2.17l1.89,1.44l1.74,0.74c0.06,0.04,0.11,0.08,0.16,0.12l2.4,2.17
		l-2.86-1.45L35,27.5l-2.55-1.92L29.72,24l-2.09-0.8l-1.96-1.15l-2.04-1.85L26.21,21.64z"/>
	<ellipse class="st6" cx="41.61" cy="31.04" rx="9.04" ry="9.14"/>
	<ellipse class="st6" cx="41.55" cy="17.43" rx="7.28" ry="7.36"/>
	<ellipse class="st7" cx="36.74" cy="15.59" rx="0.78" ry="0.79"/>
	<ellipse class="st7" cx="42.33" cy="15.59" rx="0.78" ry="0.79"/>
	<ellipse class="st8" cx="36.93" cy="15.26" rx="0.33" ry="0.33"/>
	<ellipse class="st8" cx="42.52" cy="15.26" rx="0.33" ry="0.33"/>
	<path class="st0" d="M38.78,16.81c0.44,0.38,0.66,0.92,0.55,1.41c-0.06,0.28-0.22,0.48-0.33,0.6c-1.86,0.35-3.72,0.71-5.58,1.06
		L38.78,16.81z"/>
	<g>
		<g>
			<path class="st9" d="M37.94,21.26c1.41,0.53,2.99,0.56,4.42,0.09c0.46-0.15,0.26-0.87-0.2-0.72c-1.32,0.43-2.72,0.39-4.02-0.09
				c-0.19-0.07-0.41,0.08-0.46,0.26C37.62,21.01,37.75,21.19,37.94,21.26L37.94,21.26z"/>
		</g>
	</g>
	<ellipse class="st10" cx="38.95" cy="27.29" rx="0.72" ry="0.72"/>
	<ellipse class="st11" cx="38.95" cy="30.71" rx="0.72" ry="0.72"/>
	<ellipse class="st12" cx="38.95" cy="34.26" rx="0.72" ry="0.72"/>
	<path class="st13" d="M46.1,11.65c-1.09,0.33-2.65,0.67-4.55,0.66c-1.84-0.01-3.35-0.34-4.42-0.66c0-3.02,0-6.05,0-9.07
		c1.05,0.32,2.52,0.64,4.29,0.66c1.96,0.02,3.57-0.32,4.68-0.66C46.1,5.6,46.1,8.62,46.1,11.65z"/>
	<ellipse class="st14" cx="41.61" cy="2.38" rx="4.49" ry="1.38"/>
	<path class="st15" d="M46.23,24.66c-0.19,0.04-0.46,0.09-0.78,0.13c-0.3,0.04-0.52,0.06-0.63,0.06c-2.24,0.17-3.27,0.2-3.27,0.2
		c-1.4,0.01-2.68-0.08-3.82-0.22c-0.44-0.05-0.85-0.11-1.25-0.18c-0.52-0.07-0.91-0.52-0.91-1.05c0-0.53,0.39-0.98,0.91-1.05
		c1.43,0.23,3.14,0.41,5.07,0.39c1.76-0.01,3.34-0.18,4.68-0.39c0.4-0.06,0.76,0.1,1,0.35c0.18,0.19,0.3,0.44,0.3,0.7
		c0,0.28-0.13,0.55-0.34,0.75c-0.13,0.12-0.28,0.21-0.46,0.27C46.57,24.67,46.41,24.69,46.23,24.66z"/>
	<polygon class="st0" points="29.98,24 28.68,23.87 26.47,24 23.86,23.87 22.82,24 21.52,23.74 23.21,23.48 25.03,23.48 
		27.25,23.61 29.33,23.61 29.98,23.61 	"/>
	<path class="st0" d="M61.16,34.18l-1.82-0.39l-2.05-0.27l-4.1-1.28l-2.16-0.98l-1.85-0.33c-0.06-0.02-0.12-0.05-0.18-0.08
		c-0.7-0.42-1.4-0.84-2.09-1.26c-0.18-0.11,0.25-0.12,0.26-0.12c0.07,0.02,2.06,0.55,2.13,0.57l2.01,0.4l2.91,1.3l3.01,0.92
		l2.21,0.31l2.17,0.67L64,35L61.16,34.18z"/>
	<polygon class="st0" points="55.38,32.56 56.49,32.49 58.34,32.17 60.55,31.96 61.41,31.76 62.53,31.77 61.13,32.12 59.59,32.33 
		57.71,32.5 55.96,32.73 55.41,32.8 	"/>
</g>
</svg>
